<svg width="50" height="50" viewBox="0 0 50 50" fill="none" xmlns="http://www.w3.org/2000/svg">
<path fill-rule="evenodd" clip-rule="evenodd" d="M11.3546 0.922481C5.86261 1.64781 1.64781 5.86261 0.922482 11.3546C0.423835 15.1302 0 19.8532 0 25C0 30.1468 0.423835 34.8698 0.922481 38.6454C1.64781 44.1374 5.86261 48.3522 11.3546 49.0775C15.1302 49.5762 19.8532 50 25 50C30.1468 50 34.8698 49.5762 38.6454 49.0775C44.1374 48.3522 48.3522 44.1374 49.0775 38.6454C49.5762 34.8698 50 30.1468 50 25C50 19.8532 49.5762 15.1302 49.0775 11.3546C48.3522 5.86261 44.1374 1.64781 38.6454 0.922482C34.8698 0.423835 30.1468 0 25 0C19.8532 0 15.1302 0.423835 11.3546 0.922481Z" fill="#76C248"/>
</svg>
