<svg width="216" height="104" viewBox="0 0 216 104" fill="none" xmlns="http://www.w3.org/2000/svg">
<path fill-rule="evenodd" clip-rule="evenodd" d="M135.363 36.0018C135.718 35.5799 136.225 34.9758 137.014 34.019C139.622 30.8565 141.96 26.907 142.815 24.8156C145.016 20.4268 144.459 10.8426 135.03 9.02364C131.791 8.64969 124.992 9.88528 123.701 17.8192C122.825 23.2087 127.279 29.7588 130.63 34.1566C131.652 35.4985 132.189 36.0123 132.807 36.6042C133.145 36.9281 133.508 37.2754 133.988 37.7946C134.552 36.9675 134.629 36.8762 135.363 36.0018ZM128.926 15.0354C129.363 14.697 129.991 14.7765 130.33 15.213C131.208 16.3452 132.576 18.1994 133.956 20.2481C135.477 18.2385 136.784 16.3926 137.39 15.2513C137.649 14.7635 138.254 14.578 138.742 14.8369C139.23 15.0959 139.416 15.7013 139.157 16.1891C138.407 17.6005 136.809 19.8129 135.12 22.022C136.36 23.9678 137.505 25.9644 138.172 27.5946C138.382 28.1057 138.137 28.6896 137.626 28.8988C137.114 29.1081 136.53 28.8634 136.321 28.3522C135.775 27.02 134.859 25.3778 133.817 23.7055C132.432 25.4748 131.069 27.1616 130.089 28.3732L129.851 28.6675C129.504 29.0971 128.875 29.1641 128.445 28.8171C128.015 28.4701 127.948 27.8405 128.295 27.4108L128.532 27.1182C129.614 25.7789 131.153 23.8749 132.67 21.9237C131.211 19.7236 129.703 17.6697 128.748 16.4384C128.41 16.0019 128.49 15.3738 128.926 15.0354Z" fill="#CCAF81"/>
<path fill-rule="evenodd" clip-rule="evenodd" d="M1.80012 40.0708C1.60477 38.121 3.72301 34.5596 5.89748 33.1812C7.2615 32.3168 9.26531 32.0373 12.0798 32.3191C13.0942 32.4207 18.5036 33.5064 24.1004 34.7316C29.6973 35.9568 35.6517 37.1813 37.3327 37.4526L40.3888 37.9457L41.6073 36.419C44.1392 33.2472 47.5408 30.5221 50.5346 29.2672C52.4996 28.4436 56.2601 28.102 58.5376 28.5402C60.5672 28.9308 62.3926 30.0908 62.9565 31.3483C64.1654 34.0437 62.3369 37.5994 58.5519 39.9137C55.0791 42.0375 51.2997 43.1495 46.2318 43.5385L43.0876 43.7801L42.1671 46.0057C37.1942 58.0294 32.8148 81.1007 33.6894 90.6679L33.9459 93.4729L33.205 94.0915C32.2368 94.8996 29.6376 95.2157 28.1525 94.7057C25.2157 93.6975 24.1186 90.8916 24.5843 85.5793C25.6698 73.1982 30.7567 55.523 36.3322 44.7617C36.8165 43.8269 37.1522 43.0127 37.078 42.9524C36.88 42.7917 29.414 41.6574 25.6284 41.213C17.0154 40.2017 11.1371 40.3704 6.02832 41.7752C4.46049 42.2063 3.09353 42.5184 2.9906 42.4687C2.59852 42.279 1.87523 40.8223 1.80012 40.0708ZM55.0241 37.0135C58.5606 35.4732 59.2843 33.5205 56.5853 32.8012C56.1854 32.6947 55.0087 32.6486 53.9702 32.6991C51.8753 32.8006 50.8197 33.1736 49.3454 34.3334C48.3799 35.0931 46.0871 37.8122 46.1226 38.1558C46.1951 38.8588 52.7058 38.0234 55.0241 37.0135Z" fill="#CCAF81"/>
<path d="M180.576 28.1302C180.104 28.3708 179.495 28.8329 179.224 29.1567C178.497 30.027 178.155 31.6691 178.485 32.7014C178.854 33.8543 180.646 35.2493 181.855 35.3245C184.378 35.4814 186.317 33.5285 186.019 31.1305C185.692 28.4973 182.889 26.9522 180.576 28.1302Z" fill="#CCAF81"/>
<path d="M113.189 37.8384C113.458 36.8139 113.594 36.6494 114.428 36.3396C115.818 35.8235 118.966 35.6031 120.003 35.9494C121.918 36.5878 122.591 38.8339 121.861 42.1423C121.517 43.705 119.804 50.0428 118.415 54.8999C117.843 56.897 117.768 57.4207 118.056 57.3852C119.137 55.6782 128.536 44.4889 130.271 45.6856C130.998 46.1872 131.123 46.4091 131.248 47.4204C131.637 50.5558 128.925 54.4038 125.169 56.0451L124.22 56.4595L125.001 56.7426C126.339 57.2276 126.895 58.0194 127.053 59.6645C127.129 60.4582 127.05 61.7472 126.878 62.5291C126.848 62.6638 126.821 62.7944 126.797 62.9203C126.997 71.9114 135.049 76.0311 138.104 76.0021C141.18 75.9728 140.605 80.2376 131.364 79.1085C125.164 78.3509 121.136 72.1713 119.935 67.9538C119.424 66.8074 119.398 65.3128 119.855 63.4585C120.227 61.9477 120.157 61.1859 119.589 60.559C119.083 60.0013 117.892 60.0574 117.208 60.671C116.634 61.1858 115.371 65.7073 115.503 66.7723C115.521 66.9177 115.533 67.0548 115.544 67.1823C115.764 69.6908 117.119 72.5862 111.378 71.6863C110.191 71.5001 109.107 70.6135 108.808 69.5846C108.67 69.1087 108.511 68.7248 108.454 68.7317C108.398 68.7387 108.045 69.0423 107.671 69.4067C106.72 70.3327 104.407 71.7372 102.666 72.4455C101.582 72.8863 100.303 73.1546 97.8032 73.4655C94.627 73.8605 94.3227 73.8587 93.0281 73.4381C91.3395 72.8897 89.8496 71.7707 89.0594 70.4571L88.4668 69.4721L87.4224 70.9018C85.3683 73.7133 82.6783 75.4532 79.8643 75.7902C77.489 76.0746 75.8725 75.4518 75.0711 73.9429L74.7379 73.3154L73.9152 74.1461C70.6942 77.3991 65.2879 78.4174 63.4544 76.1166C63.1414 75.7237 62.8622 75.2191 62.8339 74.9949C62.8056 74.7708 62.7337 74.5936 62.6745 74.6008C62.6151 74.6082 61.8149 75.2685 60.8967 76.0685C58.8955 77.8113 57.3508 78.5654 55.2537 78.8234C54.0957 78.9659 53.4092 78.913 52.5968 78.6185C51.0387 78.0535 50.4539 77.3396 50.1325 75.6095C49.8205 73.9295 49.9904 73.0073 51.8063 66.5278C52.4592 64.1972 52.6583 59.9873 52.5902 59.9344C52.5221 59.8816 52.1952 59.9811 51.8636 60.1555C51.532 60.3298 45.8562 62.003 45.2387 62.079C43.228 62.3264 42.6726 61.7396 43.0002 59.2528C42.7642 57.3507 50.8512 56.4943 55.4363 56.0087C56.1002 55.9384 56.6906 55.8759 57.1717 55.8191C58.8186 55.6246 60.4194 55.7538 60.4337 55.8691C60.4583 56.0677 57.8006 69.4741 57.254 71.198C56.9251 72.236 56.9883 72.6786 57.5326 73.1464C58.4538 73.9379 60.6136 73.0212 62.0031 71.2484C62.8635 70.1508 63.4769 68.3631 65.2291 61.8473C66.0878 58.6546 66.3592 57.2596 66.201 56.8525C65.9832 56.2914 65.1818 55.9468 64.0812 55.9408L63.536 55.9377L64.0311 54.5799C64.6094 52.9939 64.8029 52.8838 67.6976 52.4944C71.4227 51.993 72.8409 52.8785 72.987 55.7978C73.0679 57.4111 72.7971 58.6331 70.5969 66.5845C69.5999 70.1884 69.4894 71.2927 70.0801 71.7512C70.8751 72.3683 73.3186 71.3471 74.3253 69.9769C74.5854 69.6227 75.2901 67.5425 75.8909 65.354C76.4917 63.1655 77.6011 59.1448 78.3564 56.4191L79.7296 51.4631L83.1908 51.0372C85.0946 50.803 86.6589 50.6644 86.667 50.7291C86.675 50.7941 86.0206 53.1882 85.2126 56.0497C84.9403 57.0142 84.6871 57.9098 84.452 58.7417C81.71 68.4424 81.4205 69.4668 81.8009 69.879C81.8458 69.9277 81.9 69.9679 81.9607 70.0127C82.0048 70.0454 82.0524 70.0806 82.1022 70.1233C83.2162 71.0808 86.0161 69.5434 87.1803 67.335C87.4603 66.8039 87.7485 65.6645 87.8209 64.8026C88.2568 59.6142 91.7094 53.3119 95.5686 50.6598C97.6972 49.1973 99.2228 48.5919 101.48 48.3141C103.661 48.0458 104.462 48.1719 105.541 48.9525C108.385 51.0084 108.302 56.3415 105.361 60.5337C104.803 61.7551 99.5054 59.8573 101.085 57.1474C101.366 56.3356 101.858 55.6643 102.324 55.0294C103.127 53.9347 103.85 52.9483 103.276 51.5367C102.958 50.7544 102.31 50.8176 102.31 50.8176C101.292 50.9527 100.004 51.9805 98.7747 53.638C97.2458 55.7001 96.3739 57.6203 95.4784 60.897C94.8269 63.2818 94.8007 63.5803 95.06 65.6927C95.2943 67.6014 95.4225 68.0371 95.9 68.5443C98.7267 71.5496 106.14 68.9432 109.01 63.9355C109.588 62.926 109.79 62.2241 114.41 45.2072C115.794 40.1098 115.717 39.4424 113.738 39.3552C113.213 39.332 112.807 39.2402 112.835 39.1511C112.864 39.0621 113.023 38.4713 113.189 37.8384Z" fill="#CCAF81"/>
<path fill-rule="evenodd" clip-rule="evenodd" d="M133.71 64.2871C133.81 64.4492 133.95 64.6748 134.098 64.916C134.866 66.1647 136.302 67.2717 137.895 67.8423C141.849 69.2595 147.525 67.3622 150.891 65.2455C152.695 64.111 154.966 61.5944 155.423 60.2233C155.699 59.3933 155.687 59.3254 155.128 58.6336L154.545 57.9108L153.233 59.5842C151.345 61.9936 148.83 63.5757 146.132 64.0517C143.863 64.4518 142.507 64.2326 141.327 63.2753C140.435 62.5522 139.768 60.9677 139.782 59.6051L139.791 58.6115L142.699 58.1121C146.954 57.3813 148.493 56.6354 150.378 54.3911C151.741 52.7677 152.422 51.4208 152.794 49.6122C153.466 46.3491 152.229 43.6041 149.739 42.8286C148.49 42.4399 145.313 42.768 143.575 43.4652C138.149 45.6421 133.969 51.675 132.957 58.7843C132.924 60.3635 133.075 62.5294 133.71 64.2871ZM144.958 54.2844C146.55 52.4156 147.904 47.5335 147.278 45.9209C147.089 45.4349 146.903 45.3256 146.376 45.3905C144.977 45.5627 142.82 48.9012 141.115 53.5334C140.197 56.0281 140.309 56.1982 142.528 55.682C143.898 55.3631 144.175 55.2039 144.958 54.2844Z" fill="#CCAF81"/>
<path fill-rule="evenodd" clip-rule="evenodd" d="M156.909 46.2789C156.697 46.1285 156.531 46.0115 156.282 46.0091C151.128 41.6866 170.568 40.6254 170.744 42.0476C170.783 42.3592 170.118 44.8366 167.883 52.7155C167.03 55.7225 166.35 58.3266 166.372 58.5024C166.43 58.9697 167.44 59.4317 168.199 59.3383C169.19 59.2164 170.899 57.9633 171.685 56.783C172.402 55.7064 172.656 54.9239 174.586 47.8488C175.668 43.8832 175.8 42.9758 175.367 42.4759C175.041 42.1004 174.125 41.825 173.471 41.9055L172.867 41.9798L173.39 40.5292C173.994 38.8537 174.2 38.7396 177.266 38.3705C180.612 37.9681 181.981 38.7925 182.305 41.4052C182.502 42.9883 182.293 44.0379 180.408 50.9331C178.929 56.3456 178.795 57.2223 179.383 57.6785C179.867 58.0544 181.225 57.7897 182.274 57.1151C183.383 56.4018 185.025 54.1698 185.103 53.2702C185.211 52.0105 185.792 49.6832 186.479 47.7514C188.958 40.7872 193.061 36.7572 198.664 35.7846C200.767 35.4194 200.86 35.425 202.097 35.9941C203.311 36.5531 203.371 36.5577 203.433 36.095C203.494 35.6368 203.686 35.5874 206.981 35.1821C208.896 34.9464 210.47 34.8127 210.479 34.8849C210.488 34.9569 209.384 38.9907 208.024 43.8486C206.665 48.7066 205.521 52.9404 205.481 53.2573C205.383 54.0502 206.151 54.6687 207.09 54.5532C208.298 54.4046 210.067 53.0709 210.866 51.7062C211.26 51.0326 211.663 50.4653 211.761 50.446C211.859 50.4266 212.149 50.7393 212.407 51.1409C212.85 51.8327 212.854 51.9291 212.477 52.9644C211.855 54.6702 209.753 57.1173 207.827 58.3783C206.427 59.295 205.847 59.531 204.296 59.8132C201.541 60.3144 199.764 59.7524 198.891 58.1039L198.568 57.4943L196.916 58.8829C194.809 60.6539 193.316 61.304 191.053 61.437C189.709 61.5159 189.11 61.4288 188.325 61.0401C187.288 60.5268 186.115 59.1894 185.69 58.0354L185.447 57.3778L184.488 58.6307C182.508 61.218 179.86 62.8679 177.153 63.2009C176.253 63.3116 175.159 63.3025 174.721 63.1808C173.752 62.9109 172.22 61.5995 172.142 60.9724C172.067 60.3638 172.017 60.3853 170.848 61.5307C170.293 62.0741 169.199 62.9203 168.417 63.4113C165.686 65.1255 161.801 65.2875 160.485 63.7422C159.731 62.8576 159.333 61.4702 159.42 60.0302C159.483 58.9974 160.713 54.4342 162.773 47.2829C163.035 46.3736 163.029 46.3412 162.643 46.5569C158.468 47.3798 157.504 46.6988 156.909 46.2789ZM202.208 39.0845C202.164 39.0429 202.11 39.0118 202.049 38.9767C201.325 38.5589 199.38 38.8729 198.298 39.5824C195.793 41.2249 192.499 48.2096 191.848 53.2573C191.607 55.1277 191.739 55.9054 192.442 56.7692C193.056 57.5236 194.852 57.2139 196.484 56.0725C197.922 55.067 198.47 54.3909 198.699 53.3398C198.786 52.9391 199.35 50.8485 199.952 48.6941L199.958 48.6708C202.281 40.3584 202.546 39.4064 202.208 39.0845Z" fill="#CCAF81"/>
<path fill-rule="evenodd" clip-rule="evenodd" d="M97.8309 31.7749L101.05 31.3143C102.896 31.0501 104.858 32.2201 105.167 34.3776C105.48 36.5601 104.361 39.3291 100.456 39.8879L97.1876 40.3557L97.8309 31.7749ZM99.0852 38.4933L100.557 38.2826C102.566 37.9952 103.574 36.4127 103.337 34.7541C103.164 33.5444 102.171 32.7447 100.936 32.9214L99.4887 33.1285L99.0852 38.4933Z" fill="#FF8D4D"/>
<path d="M91.199 41.2127L92.9081 40.9681L93.5514 32.3874L91.7799 32.6409L91.3356 38.5206L87.9251 33.1926L86.1037 33.4532L85.4603 42.034L87.2318 41.7805L87.685 35.6959L91.199 41.2127Z" fill="#FF8D4D"/>
<path d="M81.1697 42.648L79.3982 42.9015L80.0415 34.3208L81.813 34.0673L81.1697 42.648Z" fill="#FF8D4D"/>
<path d="M71.4039 44.0456L69.6324 44.2991L70.2757 35.7184L76.1641 34.8757L76.0325 36.4472L71.9281 37.0346L71.8002 38.8982L75.8173 38.3233L75.6982 39.893L71.6687 40.4697L71.4039 44.0456Z" fill="#FF8D4D"/>
<path fill-rule="evenodd" clip-rule="evenodd" d="M192.761 71.8845L195.98 71.4239C197.826 71.1597 199.789 72.3296 200.097 74.4872C200.41 76.6696 199.291 79.4387 195.386 79.9975L192.118 80.4653L192.761 71.8845ZM194.015 78.6028L195.488 78.3922C197.496 78.1047 198.504 76.5223 198.267 74.8636C198.094 73.6539 197.101 72.8542 195.866 73.031L194.419 73.2381L194.015 78.6028Z" fill="#FF8D4D"/>
<path fill-rule="evenodd" clip-rule="evenodd" d="M179.827 78.5717C180.153 80.8539 182.144 82.0453 184.452 81.715C187.197 81.3222 188.97 78.8541 188.581 76.1353C188.256 73.8656 186.265 72.6742 183.969 73.0027C181.225 73.3955 179.438 75.853 179.827 78.5717ZM186.752 76.5243C187.007 78.3077 185.924 79.9008 184.327 80.1293C182.992 80.3204 181.859 79.6045 181.657 78.1952C181.402 76.4118 182.473 74.8205 184.082 74.5902C185.417 74.3991 186.552 75.1275 186.752 76.5243Z" fill="#FF8D4D"/>
<path fill-rule="evenodd" clip-rule="evenodd" d="M172.274 83.4578C169.966 83.7881 167.975 82.5967 167.649 80.3145C167.26 77.5958 169.047 75.1383 171.791 74.7455C174.087 74.417 176.078 75.6084 176.403 77.8781C176.792 80.5969 175.019 83.065 172.274 83.4578ZM172.149 81.8721C173.746 81.6436 174.829 80.0505 174.574 78.2671C174.374 76.8703 173.239 76.1419 171.904 76.333C170.295 76.5633 169.224 78.1546 169.479 79.938C169.681 81.3472 170.814 82.0631 172.149 81.8721Z" fill="#FF8D4D"/>
<path d="M159.768 85.0949L157.996 85.3484L158.639 76.7677L164.528 75.925L164.396 77.4965L160.292 78.0839L160.164 79.9475L164.181 79.3726L164.062 80.9423L160.032 81.519L159.768 85.0949Z" fill="#FF8D4D"/>
<path d="M60.5968 95.2265C60.5628 94.9512 60.7584 94.7004 61.0337 94.6664L71.0054 93.4331C71.2808 93.3991 71.5316 93.5946 71.5657 93.8699C71.5997 94.1452 71.4041 94.3959 71.1287 94.43L61.157 95.6632C60.8817 95.6973 60.6308 95.5017 60.5968 95.2265Z" fill="#CCAF81"/>
<path d="M79.543 92.8833C79.509 92.6081 79.7046 92.3573 79.98 92.3232L90.9489 90.9667C91.2242 90.9326 91.475 91.1282 91.5091 91.4035C91.5431 91.6787 91.3475 91.9295 91.0721 91.9635L80.1033 93.3201C79.8279 93.3541 79.5771 93.1586 79.543 92.8833Z" fill="#CCAF81"/>
<path d="M98.9262 89.9801C98.6509 90.0142 98.4552 90.2649 98.4893 90.5402C98.5233 90.8155 98.7741 91.011 99.0495 90.977L109.021 89.7437C109.297 89.7097 109.492 89.4589 109.458 89.1836C109.424 88.9084 109.173 88.7128 108.898 88.7469L98.9262 89.9801Z" fill="#CCAF81"/>
</svg>
